<svg width="519" height="95" viewBox="0 0 519 95" fill="none" xmlns="http://www.w3.org/2000/svg">
<path d="M0.208001 93V24.744H18.208L18.928 31.368C22.192 28.872 25.744 26.904 29.584 25.464C33.52 24.024 37.744 23.304 42.256 23.304C47.056 23.304 50.752 24.024 53.344 25.464C56.032 26.904 58.096 28.968 59.536 31.656C62.704 29.16 66.304 27.144 70.336 25.608C74.464 24.072 79.312 23.304 84.88 23.304C92.752 23.304 98.56 25.368 102.304 29.496C106.048 33.528 107.92 39.72 107.92 48.072V93H88.768V50.232C88.768 45.72 87.808 42.504 85.888 40.584C83.968 38.568 80.896 37.56 76.672 37.56C70.912 37.56 66.112 39.624 62.272 43.752C62.752 45.384 62.992 47.352 62.992 49.656V93H44.848V50.232C44.848 46.008 44.128 42.84 42.688 40.728C41.248 38.616 38.464 37.56 34.336 37.56C31.456 37.56 28.72 38.328 26.128 39.864C23.632 41.304 21.376 42.984 19.36 44.904V93H0.208001ZM149.935 94.44C138.127 94.44 128.767 91.512 121.855 85.656C114.943 79.704 111.487 70.728 111.487 58.728C111.487 47.88 114.367 39.288 120.127 32.952C125.983 26.52 134.671 23.304 146.191 23.304C156.751 23.304 164.815 26.088 170.383 31.656C176.047 37.128 178.879 44.328 178.879 53.256V65.64H129.487C130.543 71.112 133.039 74.856 136.975 76.872C141.007 78.888 146.671 79.896 153.967 79.896C157.615 79.896 161.311 79.56 165.055 78.888C168.895 78.216 172.159 77.352 174.847 76.296V90.12C171.679 91.56 167.983 92.616 163.759 93.288C159.535 94.056 154.927 94.44 149.935 94.44ZM129.487 53.688H161.887V49.944C161.887 46.008 160.735 42.936 158.431 40.728C156.127 38.424 152.239 37.272 146.767 37.272C140.335 37.272 135.823 38.568 133.231 41.16C130.735 43.752 129.487 47.928 129.487 53.688ZM185.214 93V24.744H203.214L203.934 31.224C206.718 29.112 210.222 27.288 214.446 25.752C218.766 24.12 223.278 23.304 227.982 23.304C237.006 23.304 243.582 25.416 247.71 29.64C251.838 33.864 253.902 40.392 253.902 49.224V93H234.462V50.232C234.462 45.624 233.502 42.36 231.582 40.44C229.758 38.52 226.302 37.56 221.214 37.56C218.238 37.56 215.214 38.232 212.142 39.576C209.166 40.92 206.67 42.6 204.654 44.616V93H185.214ZM289.602 94.44C281.73 94.44 275.874 92.376 272.034 88.248C268.29 84.12 266.418 78.504 266.418 71.4V39.72H256.77V24.744H266.418V10.056L285.858 4.29599V24.744H303.138L301.986 39.72H285.858V70.104C285.858 73.848 286.722 76.44 288.45 77.88C290.178 79.224 292.866 79.896 296.514 79.896C299.202 79.896 301.986 79.416 304.866 78.456V91.848C302.754 92.712 300.45 93.336 297.954 93.72C295.458 94.2 292.674 94.44 289.602 94.44ZM341.77 94.44C329.002 94.44 319.642 91.368 313.69 85.224C307.738 78.984 304.762 70.2 304.762 58.872C304.762 47.544 307.738 38.808 313.69 32.664C319.738 26.424 329.098 23.304 341.77 23.304C354.538 23.304 363.898 26.424 369.85 32.664C375.898 38.808 378.922 47.544 378.922 58.872C378.922 70.2 375.946 78.984 369.994 85.224C364.042 91.368 354.634 94.44 341.77 94.44ZM341.77 77.88C348.01 77.88 352.474 76.488 355.162 73.704C357.85 70.824 359.194 65.88 359.194 58.872C359.194 51.864 357.85 46.968 355.162 44.184C352.474 41.304 348.01 39.864 341.77 39.864C335.626 39.864 331.21 41.304 328.522 44.184C325.834 46.968 324.49 51.864 324.49 58.872C324.49 65.88 325.834 70.824 328.522 73.704C331.21 76.488 335.626 77.88 341.77 77.88ZM408.584 94.44C403.496 94.44 398.648 94.056 394.04 93.288C389.432 92.616 385.736 91.752 382.952 90.696V74.568C386.312 75.912 390.104 76.968 394.328 77.736C398.552 78.408 402.44 78.744 405.992 78.744C410.792 78.744 414.152 78.456 416.072 77.88C418.088 77.304 419.096 76.008 419.096 73.992C419.096 71.688 417.56 70.008 414.488 68.952C411.512 67.896 407.048 66.408 401.096 64.488C394.856 62.376 390.056 59.832 386.696 56.856C383.336 53.88 381.656 49.464 381.656 43.608C381.656 37.08 384.008 32.088 388.712 28.632C393.512 25.08 401.192 23.304 411.752 23.304C415.976 23.304 419.96 23.64 423.704 24.312C427.448 24.888 430.616 25.608 433.208 26.472V42.456C430.616 41.208 427.64 40.296 424.28 39.72C420.92 39.048 417.8 38.712 414.92 38.712C410.792 38.712 407.48 39 404.984 39.576C402.584 40.152 401.384 41.4 401.384 43.32C401.384 45.432 402.68 46.92 405.272 47.784C407.96 48.648 412.088 49.944 417.656 51.672C423.128 53.304 427.4 55.08 430.472 57C433.544 58.92 435.704 61.224 436.952 63.912C438.2 66.504 438.824 69.768 438.824 73.704C438.824 87.528 428.744 94.44 408.584 94.44ZM481.654 48.072L470.422 39.864L482.662 26.76L466.678 20.136L472.582 8.18399L486.118 15.096L485.398 0.263992H500.086L499.366 15.096L512.902 8.18399L518.662 20.136L502.678 26.76L514.918 39.864L503.686 48.072L492.742 33.384L481.654 48.072Z" fill="white"/>
</svg>
